<svg xmlns="http://www.w3.org/2000/svg" viewBox="0 0 1200 660" width="1200" height="660" role="img" aria-label="Docna system architecture diagram">
  <defs>
    <style>
      .bg    { fill: #0E1014; }
      .panel { fill: #161A21; stroke: #272D38; stroke-width: 1; }
      .card  { fill: #1C222B; stroke: #313945; stroke-width: 1; }
      .ext   { fill: #171B23; stroke: #2E3644; stroke-width: 1; stroke-dasharray: 4 3; }
      .t     { font-family: 'IBM Plex Sans', ui-sans-serif, system-ui, sans-serif; fill: #E7E9EC; }
      .mono  { font-family: 'IBM Plex Mono', ui-monospace, SFMono-Regular, Menlo, monospace; }
      .h     { font-size: 15px; font-weight: 600; fill: #F5F6F7; }
      .lbl   { font-size: 12.5px; fill: #C3C9D2; }
      .mut   { font-size: 11.5px; fill: #8B93A0; }
      .kicker{ font-size: 10.5px; font-weight: 600; fill: #F59E0B; letter-spacing: 1.4px; }
      .title { font-size: 21px; font-weight: 600; fill: #FFFFFF; }
      .sub   { font-size: 13px; fill: #8B93A0; }
      .flow  { stroke: #F59E0B; stroke-width: 1.6; fill: none; marker-end: url(#ah); }
      .wire  { stroke: #4A5464; stroke-width: 1.3; fill: none; marker-end: url(#ag); }
      .wired { stroke: #4A5464; stroke-width: 1.3; fill: none; stroke-dasharray: 4 3; marker-end: url(#ag); }
    </style>
    <marker id="ah" viewBox="0 0 10 10" refX="9" refY="5" markerWidth="6" markerHeight="6" orient="auto-start-reverse">
      <path d="M 0 0 L 10 5 L 0 10 z" fill="#F59E0B"/>
    </marker>
    <marker id="ag" viewBox="0 0 10 10" refX="9" refY="5" markerWidth="6" markerHeight="6" orient="auto-start-reverse">
      <path d="M 0 0 L 10 5 L 0 10 z" fill="#4A5464"/>
    </marker>
  </defs>

  <rect class="bg" x="0" y="0" width="1200" height="660"/>

  <text class="t title" x="40" y="46">Docna — System Architecture</text>
  <text class="t sub" x="40" y="70">React SPA · FastAPI · Celery · Postgres + pgvector · Redis · S3-compatible object storage</text>
  <line x1="40" y1="88" x2="1160" y2="88" stroke="#272D38" stroke-width="1"/>

  <!-- ── CLIENT ── -->
  <rect class="panel" x="40" y="120" width="230" height="240" rx="10"/>
  <text class="t kicker" x="60" y="147">CLIENT</text>
  <text class="t h" x="60" y="172">React 18 + Vite</text>
  <rect class="card" x="60" y="188" width="190" height="30" rx="6"/>
  <text class="t lbl" x="72" y="208">Chat · SSE stream</text>
  <rect class="card" x="60" y="224" width="190" height="30" rx="6"/>
  <text class="t lbl" x="72" y="244">Documents · PDF viewer</text>
  <rect class="card" x="60" y="260" width="190" height="30" rx="6"/>
  <text class="t lbl" x="72" y="280">Billing · Settings</text>
  <text class="t mut" x="60" y="312">TanStack Query · Zustand</text>
  <text class="t mut" x="60" y="330">Tailwind · Radix · i18n ×6</text>

  <!-- ── API ── -->
  <rect class="panel" x="330" y="120" width="290" height="400" rx="10"/>
  <text class="t kicker" x="350" y="147">API</text>
  <text class="t h" x="350" y="172">FastAPI (async)</text>

  <rect class="card" x="350" y="188" width="250" height="52" rx="6"/>
  <text class="t lbl" x="362" y="207">Middleware</text>
  <text class="t mut mono" x="362" y="226">JWT · rate limit · logging</text>

  <rect class="card" x="350" y="248" width="250" height="86" rx="6"/>
  <text class="t lbl" x="362" y="267">Routes  /api/v1</text>
  <text class="t mut mono" x="362" y="286">auth · users · documents</text>
  <text class="t mut mono" x="362" y="303">conversations · billing</text>
  <text class="t mut mono" x="362" y="320">SSE: POST /messages</text>

  <rect class="card" x="350" y="342" width="250" height="86" rx="6"/>
  <text class="t lbl" x="362" y="361">Domain services</text>
  <text class="t mut mono" x="362" y="380">rag · documents · billing</text>
  <text class="t mut mono" x="362" y="397">conversations · auth</text>
  <text class="t mut mono" x="362" y="414">quota enforcement</text>

  <text class="t mut" x="350" y="456">DDD-lite layering:</text>
  <text class="t mut" x="350" y="476">api -> service -> repository -> model</text>
  <text class="t mut" x="350" y="500">Stripe checkout · portal · webhooks</text>

  <!-- ── WORKER ── -->
  <rect class="panel" x="680" y="120" width="230" height="180" rx="10"/>
  <text class="t kicker" x="700" y="147">WORKER</text>
  <text class="t h" x="700" y="172">Celery</text>
  <rect class="card" x="700" y="188" width="190" height="30" rx="6"/>
  <text class="t lbl" x="712" y="208">Ingestion pipeline</text>
  <text class="t mut" x="700" y="240">parse -> chunk -> embed</text>
  <text class="t mut" x="700" y="258">-> index</text>
  <text class="t mut" x="700" y="282">Flower dashboard :5555</text>

  <!-- ── RAG PIPELINE (pluggable) ── -->
  <rect class="panel" x="650" y="330" width="300" height="190" rx="10"/>
  <text class="t kicker" x="670" y="357">RAG CORE</text>
  <text class="t h" x="670" y="382">Swappable ports</text>
  <text class="t mut mono" x="670" y="408">chunker    recursive|semantic|hybrid</text>
  <text class="t mut mono" x="670" y="430">embedder   openai|voyage|bge</text>
  <text class="t mut mono" x="670" y="452">retriever  dense|bm25|hybrid</text>
  <text class="t mut mono" x="670" y="474">store      pgvector|qdrant</text>
  <text class="t mut mono" x="670" y="496">reranker   cross-encoder</text>

  <!-- ── DATA ── -->
  <rect class="panel" x="970" y="120" width="190" height="240" rx="10"/>
  <text class="t kicker" x="990" y="147">DATA</text>
  <rect class="card" x="990" y="164" width="150" height="52" rx="6"/>
  <text class="t lbl" x="1002" y="183">PostgreSQL 16</text>
  <text class="t mut mono" x="1002" y="202">+ pgvector</text>
  <rect class="card" x="990" y="226" width="150" height="52" rx="6"/>
  <text class="t lbl" x="1002" y="245">Redis 7</text>
  <text class="t mut mono" x="1002" y="264">cache · broker</text>
  <rect class="card" x="990" y="288" width="150" height="52" rx="6"/>
  <text class="t lbl" x="1002" y="307">MinIO / S3</text>
  <text class="t mut mono" x="1002" y="326">source files</text>

  <!-- ── EXTERNAL ── -->
  <rect class="ext" x="970" y="390" width="190" height="130" rx="10"/>
  <text class="t kicker" x="990" y="417">EXTERNAL</text>
  <text class="t lbl" x="990" y="443">OpenAI / Anthropic</text>
  <text class="t mut" x="990" y="463">chat + embeddings</text>
  <text class="t lbl" x="990" y="489">Stripe</text>
  <text class="t mut" x="990" y="509">checkout · webhooks</text>

  <!-- ── FLOWS ── -->
  <!-- client -> api -->
  <path class="flow" d="M 270 224 L 322 224"/>
  <text class="t mut mono" x="272" y="215">HTTPS</text>
  <!-- api -> client (SSE) -->
  <path class="flow" d="M 322 268 L 270 268"/>
  <text class="t mut mono" x="272" y="288">SSE tokens</text>

  <!-- api -> worker (enqueue) -->
  <path class="wire" d="M 620 210 L 672 210"/>
  <text class="t mut mono" x="614" y="200">enqueue</text>

  <!-- api -> rag core -->
  <path class="wire" d="M 620 400 L 642 400"/>
  <!-- worker -> rag core -->
  <path class="wire" d="M 795 300 L 795 322"/>

  <!-- rag core -> data -->
  <path class="wire" d="M 950 390 L 962 350"/>
  <!-- api -> data (routed through the corridor between worker and rag core) -->
  <path class="wire" d="M 620 310 C 740 318, 880 318, 962 342"/>
  <!-- worker -> data -->
  <path class="wire" d="M 910 200 L 962 200"/>

  <!-- rag core -> external -->
  <path class="wired" d="M 950 455 L 962 455"/>
  <!-- api -> external (stripe) -->
  <path class="wired" d="M 620 495 C 800 540, 860 505, 962 500"/>

  <text class="t mut" x="40" y="600">Ingestion is asynchronous: upload returns immediately, the worker parses and indexes, the client polls status.</text>
  <text class="t mut" x="40" y="622">Answers stream token-by-token over Server-Sent Events, with citations resolved back to page numbers in the source PDF.</text>
</svg>
